<svg id="Layer_1" enable-background="new 0 0 512 512" viewBox="0 0 512 512" xmlns="http://www.w3.org/2000/svg"><path d="m479.98 300.339 14.014-4.548c2.88-.935 4.831-3.619 4.831-6.647v-74.69c0-3.027-1.949-5.711-4.828-6.646l-48.467-15.751c-3.838-12.613-8.917-24.863-15.136-36.506l23.14-45.433c1.373-2.698.854-5.974-1.288-8.114l-52.82-52.792c-2.14-2.139-5.415-2.658-8.112-1.284l-45.404 23.138c-11.701-6.252-23.959-11.34-36.533-15.164l-15.724-48.436c-.935-2.88-3.618-4.83-6.646-4.83h-74.689c-3.027 0-5.71 1.949-6.645 4.828l-15.751 48.44c-12.596 3.834-24.854 8.922-36.534 15.163l-45.404-23.138c-2.696-1.373-5.972-.856-8.113 1.284l-52.82 52.792c-2.141 2.14-2.661 5.416-1.287 8.114l23.142 45.439c-6.24 11.715-11.32 23.964-15.138 36.5l-48.44 15.752c-2.879.936-4.827 3.619-4.827 6.645v74.69c0 3.027 1.948 5.71 4.827 6.645l48.44 15.752c3.83 12.581 8.908 24.828 15.136 36.503l-23.14 45.435c-1.374 2.698-.854 5.974 1.287 8.114l52.82 52.792c2.141 2.139 5.416 2.659 8.113 1.284l45.404-23.137c11.678 6.24 23.937 11.327 36.534 15.162l15.751 48.44c.936 2.878 3.618 4.828 6.645 4.828h74.689c3.027 0 5.711-1.95 6.646-4.829l6.596-20.301c22.457 20.798 52.486 33.533 85.438 33.533 69.373 0 125.813-56.439 125.813-125.812 0-31.878-11.917-61.018-31.52-83.215zm-198.05 186.646h-64.536l-15.321-47.115c-.72-2.214-2.496-3.925-4.736-4.561-14.016-3.982-27.619-9.627-40.432-16.778-2.034-1.136-4.502-1.183-6.579-.125l-44.167 22.507-45.639-45.614 22.507-44.193c1.057-2.075 1.01-4.539-.123-6.573-7.139-12.813-12.776-26.408-16.754-40.407-.636-2.24-2.347-4.016-4.561-4.736l-47.116-15.321v-64.539l47.116-15.321c2.214-.72 3.925-2.496 4.561-4.736 3.96-13.941 9.598-27.538 16.756-40.414 1.131-2.033 1.175-4.494.12-6.567l-22.505-44.192 45.639-45.613 44.167 22.507c2.077 1.058 4.543 1.013 6.579-.125 12.815-7.153 26.418-12.798 40.432-16.779 2.24-.636 4.016-2.347 4.736-4.561l15.321-47.115h64.535l15.293 47.112c.719 2.217 2.497 3.929 4.74 4.565 13.983 3.964 27.585 9.609 40.429 16.778 2.034 1.137 4.503 1.184 6.578.125l44.167-22.507 45.639 45.613-22.508 44.193c-1.058 2.076-1.01 4.543.126 6.577 7.126 12.767 12.761 26.361 16.751 40.404.636 2.241 2.347 4.017 4.562 4.737l47.143 15.321v64.534l-15.961 5.179c-21.234-18.763-48.824-30.48-79.085-31.458.081-1.961.129-3.945.129-5.987 0-77.345-62.924-140.269-140.27-140.269-77.36 0-140.297 62.924-140.297 140.269 0 36.187 13.773 69.217 36.351 94.127.303.408.648.782 1.031 1.115 25.644 27.69 62.287 45.055 102.915 45.055 3.434 0 6.932-.148 10.455-.411 1.767 27.552 12.442 52.717 29.173 72.643zm54.861-219.385c-9.65-9.222-22.106-14.893-35.329-16.085 5.668-9.231 8.943-20.082 8.943-31.685 0-33.493-27.25-60.742-60.743-60.742s-60.741 27.249-60.741 60.742c0 11.599 3.272 22.446 8.935 31.675-29.953 2.647-53.523 27.861-53.523 58.49v11.456c-13.257-19.981-20.992-43.928-20.992-69.651 0-69.638 56.668-126.292 126.321-126.292 69.638 0 126.293 56.654 126.293 126.292 0 2.156-.05 4.246-.149 6.299-13.736 1.071-26.861 4.356-39.015 9.501zm-76.802 110.076c-3.486.284-6.944.443-10.327.443-35.891 0-68.334-15.047-91.353-39.163v-28.963c0-24.68 20.078-44.757 44.757-44.757h6.312c10.73 9.53 24.839 15.334 40.284 15.334s29.555-5.804 40.285-15.334h6.283c9.795 0 19.249 3.253 26.978 9.109-36.231 20.811-61.177 59.132-63.219 103.331zm-10.327-111.081c-25.786 0-46.765-20.979-46.765-46.765s20.979-46.765 46.765-46.765c25.787 0 46.766 20.979 46.766 46.765s-20.979 46.765-46.766 46.765zm136.025 228.792c-61.682 0-111.863-50.169-111.863-111.835 0-60.556 48.366-110.022 108.496-111.809.059 0 .117-.005.176-.007 1.061-.03 2.124-.048 3.192-.048 61.667 0 111.836 50.182 111.836 111.864-.001 61.666-50.17 111.835-111.837 111.835zm76.321-77.734c2.729 2.729 2.729 7.154 0 9.883l-23.595 23.595c-1.365 1.365-3.153 2.047-4.942 2.047s-3.577-.682-4.942-2.047c-2.729-2.729-2.729-7.154 0-9.883l11.665-11.665h-18.918c-7.9 0-14.842-2.301-21.223-7.035-7.988-5.928-14.841-13.772-20.76-23.763-5.929 10.014-12.784 17.86-20.769 23.767-6.334 4.725-13.272 7.03-21.188 7.03h-23.056c-3.86 0-6.988-3.129-6.988-6.988s3.129-6.988 6.988-6.988h23.058c4.862 0 8.945-1.357 12.853-4.272 8.431-6.238 15.446-15.342 21.404-27.785-5.954-12.454-12.967-21.565-21.382-27.793-3.903-2.91-7.987-4.258-12.874-4.258h-23.059c-3.86 0-6.988-3.129-6.988-6.988 0-3.86 3.129-6.988 6.988-6.988h23.058c7.941 0 14.878 2.295 21.209 7.017 7.973 5.9 14.823 13.746 20.748 23.764 5.916-9.996 12.768-17.843 20.759-23.774 6.358-4.715 13.299-7.007 21.224-7.007h18.932l-11.683-11.696c-2.727-2.731-2.724-7.155.006-9.883 2.731-2.727 7.154-2.725 9.883.006l23.595 23.623c2.726 2.73 2.724 7.152-.003 9.88l-23.595 23.595c-1.365 1.365-3.153 2.047-4.942 2.047s-3.577-.682-4.942-2.047c-2.729-2.729-2.729-7.154 0-9.883l11.665-11.665h-18.918c-4.952 0-8.93 1.312-12.897 4.254-8.43 6.257-15.447 15.369-21.388 27.797 5.946 12.415 12.962 21.52 21.39 27.775 3.992 2.961 7.969 4.282 12.895 4.282h18.918l-11.665-11.665c-2.729-2.729-2.729-7.154 0-9.883s7.154-2.729 9.883 0z"/></svg>